<svg xmlns="http://www.w3.org/2000/svg" version="1.1" xmlns:xlink="http://www.w3.org/1999/xlink" xmlns:svgjs="http://svgjs.dev/svgjs" width="1500" height="1500" viewBox="0 0 1500 1500"><rect width="1500" height="1500" fill="#000000"></rect><g transform="matrix(0.6666666666666666,0,0,0.6666666666666666,249.39393939393938,658.8746554071938)"><svg viewBox="0 0 396 72" data-background-color="#ffffff" preserveAspectRatio="xMidYMid meet" height="272" width="1500" xmlns="http://www.w3.org/2000/svg" xmlns:xlink="http://www.w3.org/1999/xlink"><g id="tight-bounds" transform="matrix(1,0,0,1,0.2400000000000091,0.18212211773192166)"><svg viewBox="0 0 395.52 71.63575576453614" height="71.63575576453614" width="395.52"><g><svg viewBox="0 0 575.7018509111251 104.26991602209942" height="71.63575576453614" width="395.52"><g><rect width="9.35638669992663" height="104.26991602209942" x="146.332305310867" y="0" fill="#ffffff" opacity="1" stroke-width="0" stroke="transparent" fill-opacity="1" class="rect-qz-0" data-fill-palette-color="primary" rx="1%" id="qz-0" data-palette-color="#113f67"></rect></g><g transform="matrix(1,0,0,1,180.1818509111251,0.25937790055247945)"><svg viewBox="0 0 395.52 103.75116022099446" height="103.75116022099446" width="395.52"><g id="textblocktransform"><svg viewBox="0 0 395.52 103.75116022099446" height="103.75116022099446" width="395.52" id="textblock"><g><svg viewBox="0 0 395.52 103.75116022099446" height="103.75116022099446" width="395.52"><g transform="matrix(1,0,0,1,0,0)"><svg width="395.52" viewBox="3.13 -38.16 212.08 55.64" height="103.75116022099446" data-palette-color="#113f67"><path d="M23.8-30.66L23.8-30.66 23.34-23.49 23.17-23.44Q21.36-26.15 17.02-26.95L17.02-26.95Q15.65-27.22 14.39-27.22 13.13-27.22 12.24-27 11.35-26.78 10.72-26.37L10.72-26.37Q9.38-25.49 9.38-24.07L9.38-24.07Q9.38-22.22 10.55-21.29L10.55-21.29Q12.01-20.17 15.41-19.71 18.8-19.26 20.85-18.48 22.9-17.7 24.22-16.5L24.22-16.5Q26.71-14.26 26.71-10.16L26.71-10.16Q26.71-4.79 22.66-1.88L22.66-1.88Q19.19 0.61 13.92 0.61L13.92 0.61Q9.67 0.61 5.52-1L5.52-1Q4.15-1.54 3.13-2.25L3.13-2.25 3.39-10.4 3.49-10.47Q6.52-5.25 13.43-5.25L13.43-5.25Q18.33-5.25 19.92-7.62L19.92-7.62Q20.46-8.42 20.46-9.41 20.46-10.4 20.14-11.05 19.82-11.69 19.09-12.16L19.09-12.16Q17.68-13.09 14.33-13.4 10.99-13.72 8.86-14.6 6.74-15.48 5.47-16.77L5.47-16.77Q3.17-19.12 3.17-23.32L3.17-23.32Q3.17-27.66 6.23-30.35L6.23-30.35Q9.33-33.08 14.59-33.08 19.85-33.08 23.8-30.66ZM39.06-5.83L39.06-3.22Q39.06-1.12 39.23 0L39.23 0 33.08 0 33.08-34.91 39.06-34.91 39.06-13.53 50.22-25.51 57.47-25.51 47.85-15.38 53.34-7.89Q55.12-5.05 56.03-3.74L56.03-3.74 57.64-1.46Q58.37-0.51 58.86 0L58.86 0 55 0Q52.85 0 51.32 0.37L51.32 0.37 43.7-10.77 39.06-5.83ZM66.55-28.83L61.05-32.79Q63.01-35.84 65.13-38.16L65.13-38.16 70.38-34.03Q69.33-32.74 68.43-31.49L68.43-31.49Q68.43-31.49 66.55-28.83L66.55-28.83ZM67.48-25.51L67.48-2.73Q67.48-0.63 67.57 0L67.57 0 61.37 0 61.37-25.51 67.48-25.51ZM80.02-36.38L80.02-2.73Q80.02-0.63 80.12 0L80.12 0 73.92 0 73.92-36.38 80.02-36.38ZM92.54-36.38L92.54-2.73Q92.54-0.63 92.64 0L92.64 0 86.44 0 86.44-36.38 92.54-36.38ZM119.62-30.66L119.62-30.66 119.15-23.49 118.98-23.44Q117.18-26.15 112.83-26.95L112.83-26.95Q111.46-27.22 110.2-27.22 108.95-27.22 108.06-27 107.17-26.78 106.53-26.37L106.53-26.37Q105.19-25.49 105.19-24.07L105.19-24.07Q105.19-22.22 106.36-21.29L106.36-21.29Q107.82-20.17 111.22-19.71 114.61-19.26 116.66-18.48 118.71-17.7 120.03-16.5L120.03-16.5Q122.52-14.26 122.52-10.16L122.52-10.16Q122.52-4.79 118.47-1.88L118.47-1.88Q115 0.61 109.73 0.61L109.73 0.61Q105.48 0.61 101.33-1L101.33-1Q99.96-1.54 98.94-2.25L98.94-2.25 99.21-10.4 99.3-10.47Q102.33-5.25 109.24-5.25L109.24-5.25Q114.15-5.25 115.73-7.62L115.73-7.62Q116.27-8.42 116.27-9.41 116.27-10.4 115.95-11.05 115.64-11.69 114.9-12.16L114.9-12.16Q113.49-13.09 110.14-13.4 106.8-13.72 104.68-14.6 102.55-15.48 101.28-16.77L101.28-16.77Q98.99-19.12 98.99-23.32L98.99-23.32Q98.99-27.66 102.04-30.35L102.04-30.35Q105.14-33.08 110.4-33.08 115.66-33.08 119.62-30.66ZM133.24-28.83L127.74-32.79Q129.7-35.84 131.82-38.16L131.82-38.16 137.07-34.03Q136.02-32.74 135.12-31.49L135.12-31.49Q135.12-31.49 133.24-28.83L133.24-28.83ZM134.16-25.51L134.16-2.73Q134.16-0.63 134.26 0L134.26 0 128.06 0 128.06-25.51 134.16-25.51ZM147.61-6.79L147.61-6.79Q146.71-5.59 146.71-4.9 146.71-4.2 146.93-3.82 147.15-3.44 147.88-3.1L147.88-3.1Q149.49-2.34 153.18-1.77 156.87-1.2 158.95-0.34 161.04 0.51 162.34 1.76L162.34 1.76Q164.75 4.13 164.75 8.47 164.75 12.82 161.7 15.15 158.65 17.48 152.64 17.48L152.64 17.48Q146.59 17.48 142.88 14.84L142.88 14.84Q139.17 12.21 139.07 7.84L139.07 7.84Q138.92 2.76 143.05 0.49L143.05 0.49Q141.93-0.44 141.55-1.7 141.17-2.95 141.17-4.57L141.17-4.57Q141.17-7.28 143.54-9.16L143.54-9.16Q140.78-11.77 140.78-15.65L140.78-15.65Q140.78-20 143.9-22.92L143.9-22.92Q147.2-26 152.45-26L152.45-26Q155.21-26 157.62-24.98L157.62-24.98Q160.8-26.32 162.29-27.33 163.78-28.34 164.19-28.81L164.19-28.81 164.34-28.78Q164.56-28.2 164.85-27.12L164.85-27.12 165.29-25.37Q165.88-23.19 166-22.39L166-22.39Q164.92-21.22 162.21-20.73L162.21-20.73Q163.26-18.7 163.26-16.43 163.26-14.16 162.48-12.32 161.7-10.47 160.26-9.08L160.26-9.08Q157.06-6.08 152.11-6.08L152.11-6.08Q149.69-6.08 147.61-6.79ZM146.98-17.77L146.98-17.77Q146.64-16.89 146.64-15.99 146.64-15.09 147.02-14.26 147.39-13.43 148.13-12.77L148.13-12.77Q149.76-11.3 152.4-11.3L152.4-11.3Q154.4-11.3 155.87-12.65L155.87-12.65Q157.4-14.11 157.4-16.17 157.4-18.24 156.01-19.51 154.62-20.78 152.18-20.78L152.18-20.78Q148.15-20.78 146.98-17.77ZM152.96 12.3L152.96 12.3Q158.97 12.3 158.97 8.11L158.97 8.11Q158.97 6.1 157.01 4.88L157.01 4.88Q154.82 3.49 149.47 2.71L149.47 2.71 148.2 2.49Q146.59 3.34 145.83 4.69 145.08 6.03 145.09 7.24 145.1 8.45 145.66 9.33 146.22 10.21 147.22 10.86L147.22 10.86Q149.45 12.3 152.96 12.3ZM176.79-16.97L176.79-2.73Q176.79-0.63 176.88 0L176.88 0 170.81 0 170.81-34.91 176.79-34.91 176.79-23.61Q179.94-26 183.28-26L183.28-26Q187.38-26 189.87-23.29L189.87-23.29Q192.31-20.58 192.31-16.11L192.31-16.11 192.31-6.4Q192.31-2.27 192.44-1.44 192.56-0.61 192.77-0.37 192.97-0.12 193.12 0.07L193.12 0.07 193.07 0.17Q191.09 0 190.19 0L190.19 0 188.46 0Q187.65 0 186.33 0.07L186.33 0.07 186.33-14.06Q186.33-17.43 184.84-19.04L184.84-19.04Q183.72-20.26 181.79-20.26L181.79-20.26Q178.94-20.26 176.79-16.97L176.79-16.97ZM210.62-5.37L210.62-5.37Q213.77-5.37 214.94-7.01L214.94-7.01 215.14-7.01 215.21-1.34Q214.02-0.15 210.77 0.24L210.77 0.24Q209.89 0.37 208.58 0.37 207.28 0.37 205.75-0.12 204.23-0.61 203.15-1.71L203.15-1.71Q200.93-3.98 200.93-8.81L200.93-8.81 200.93-19.9 197.24-19.9Q197.22-20.61 197.22-21.34L197.22-21.34 197.22-25.1Q197.22-25.51 197.24-25.51L197.24-25.51 200.93-25.51 200.93-32.47 206.91-32.47 206.91-25.51 213.62-25.51 213.62-19.9 206.91-19.9 206.91-9.94Q206.91-6.1 209.04-5.57L209.04-5.57Q209.72-5.37 210.62-5.37Z" opacity="1" transform="matrix(1,0,0,1,0,0)" fill="#ffffff" class="wordmark-text-0" data-fill-palette-color="primary" id="text-0"></path></svg></g></svg></g></svg></g></svg></g><g transform="matrix(1,0,0,1,0,0.25937790055247945)"><svg viewBox="0 0 121.83914641053553 103.75116022099446" height="103.75116022099446" width="121.83914641053553"><g><svg xmlns="http://www.w3.org/2000/svg" xmlns:xlink="http://www.w3.org/1999/xlink" version="1.1" x="0" y="0" viewBox="32.3 46.49999999999998 191.3 162.90000000000003" style="enable-background:new 0 0 256 256;" xml:space="preserve" height="103.75116022099446" width="121.83914641053553" class="icon-icon-0" data-fill-palette-color="accent" id="icon-0"><g fill="#87c0cd" data-fill-palette-color="accent"><path d="M84.5 82.1c9 0 16.4-6.7 17.6-15.4h30.4l13 18.8c0.5 0.7 1.2 1 2 1h73.7c1.3 0 2.4-1.1 2.4-2.4 0-1.3-1.1-2.4-2.4-2.4h-72.5l-13-18.8c-0.5-0.7-1.2-1-2-1H102c-1.2-8.7-8.6-15.4-17.6-15.4-9.8 0-17.8 8-17.8 17.8S74.7 82.1 84.5 82.1zM84.5 51.4c7.1 0 12.9 5.8 12.9 12.9 0 0 0 0 0 0 0 0 0 0 0 0 0 7.1-5.8 12.9-12.9 12.9-7.1 0-12.9-5.8-12.9-12.9S77.3 51.4 84.5 51.4z" fill="#ffffff" data-fill-palette-color="accent"></path><path d="M221.2 109.5h-76.7c-1.2-8.7-8.6-15.4-17.6-15.4-9.8 0-17.8 8-17.8 17.8s8 17.8 17.8 17.8c9 0 16.4-6.7 17.6-15.4h76.7c1.3 0 2.4-1.1 2.4-2.4C223.6 110.6 222.5 109.5 221.2 109.5zM126.9 124.9c-7.1 0-12.9-5.8-12.9-12.9S119.8 99 126.9 99c7.1 0 12.9 5.8 12.9 12.9 0 0 0 0 0 0s0 0 0 0C139.8 119.1 134 124.9 126.9 124.9z" fill="#ffffff" data-fill-palette-color="accent"></path><path d="M221.2 140.3h-66.9c-0.8 0-1.6 0.4-2.1 1.1l-9.4 15h-41.2l-10.2-19c-0.4-0.8-1.2-1.3-2.1-1.3H67.7c-1.2-8.7-8.6-15.4-17.6-15.4-9.8 0-17.8 8-17.8 17.8s8 17.8 17.8 17.8c9 0 16.4-6.7 17.6-15.4h20.1l10.2 19c0.4 0.8 1.2 1.3 2.1 1.3h44c0.8 0 1.6-0.4 2.1-1.1l9.4-15h65.5c1.3 0 2.4-1.1 2.4-2.4C223.6 141.4 222.5 140.3 221.2 140.3zM50.1 151.6c-7.1 0-12.9-5.8-12.9-12.9s5.8-12.9 12.9-12.9c7.1 0 12.9 5.8 12.9 12.9 0 0 0 0 0 0s0 0 0 0C63.1 145.8 57.3 151.6 50.1 151.6z" fill="#ffffff" data-fill-palette-color="accent"></path><path d="M221.2 168.6h-38.6c-0.9 0-1.7 0.5-2.1 1.2l-11.4 19.4h-58.2c-1.2-8.7-8.6-15.4-17.6-15.4-9.8 0-17.8 8-17.8 17.8 0 9.8 8 17.8 17.8 17.8 9 0 16.4-6.7 17.6-15.4h59.6c0.9 0 1.7-0.5 2.1-1.2l11.4-19.4h37.2c1.3 0 2.4-1.1 2.4-2.4C223.6 169.7 222.5 168.6 221.2 168.6zM93.3 204.6c-7.1 0-12.9-5.8-12.9-12.9 0-7.1 5.8-12.9 12.9-12.9 7.1 0 12.9 5.8 12.9 12.9C106.3 198.8 100.5 204.6 93.3 204.6z" fill="#ffffff" data-fill-palette-color="accent"></path></g></svg></g></svg></g></svg></g><defs></defs></svg><rect width="395.52" height="71.63575576453614" fill="none" stroke="none" visibility="hidden"></rect></g></svg></g></svg>