<?xml version="1.0" encoding="UTF-8"?>
<svg xmlns="http://www.w3.org/2000/svg" xmlns:xlink="http://www.w3.org/1999/xlink" width="551px" height="100px" viewBox="0 0 551 100" version="1.1">
<defs>
<clipPath id="clip1">
  <path d="M 140 0 L 150 0 L 150 99.492188 L 140 99.492188 Z M 140 0 "/>
</clipPath>
<clipPath id="clip2">
  <path d="M 172.515625 0.246094 L 549.597656 0.246094 L 549.597656 99.246094 L 172.515625 99.246094 Z M 172.515625 0.246094 "/>
</clipPath>
<clipPath id="clip3">
  <path d="M 21 0.246094 L 116.894531 0.246094 L 116.894531 25 L 21 25 Z M 21 0.246094 "/>
</clipPath>
<clipPath id="clip4">
  <path d="M 47 29 L 116.894531 29 L 116.894531 51 L 47 51 Z M 47 29 "/>
</clipPath>
<clipPath id="clip5">
  <path d="M 0.734375 45 L 116.894531 45 L 116.894531 70 L 0.734375 70 Z M 0.734375 45 "/>
</clipPath>
<clipPath id="clip6">
  <path d="M 26 74 L 116.894531 74 L 116.894531 99.246094 L 26 99.246094 Z M 26 74 "/>
</clipPath>
</defs>
<g id="surface1">
<g clip-path="url(#clip1)" clip-rule="nonzero">
<path style=" stroke:none;fill-rule:nonzero;fill:rgb(6.666667%,24.705882%,40.392157%);fill-opacity:1;" d="M 144.703125 0 C 147.167969 0 149.164062 2.460938 149.164062 5.492188 L 149.164062 94 C 149.164062 97.035156 147.167969 99.492188 144.703125 99.492188 C 142.242188 99.492188 140.246094 97.035156 140.246094 94 L 140.246094 5.492188 C 140.246094 2.460938 142.242188 0 144.703125 0 Z M 144.703125 0 "/>
</g>
<g clip-path="url(#clip2)" clip-rule="nonzero">
<path style=" stroke:none;fill-rule:nonzero;fill:rgb(6.666667%,24.705882%,40.392157%);fill-opacity:1;" d="M 209.289062 13.59375 L 208.472656 26.347656 L 208.167969 26.4375 C 206.023438 23.222656 202.378906 21.140625 197.238281 20.191406 C 195.613281 19.871094 194.054688 19.710938 192.5625 19.710938 C 191.066406 19.710938 189.792969 19.84375 188.738281 20.105469 C 187.683594 20.363281 186.785156 20.738281 186.035156 21.226562 C 184.449219 22.269531 183.65625 23.632812 183.65625 25.316406 C 183.65625 27.511719 184.347656 29.160156 185.734375 30.265625 C 187.464844 31.59375 190.34375 32.53125 194.375 33.074219 C 198.390625 33.609375 201.617188 34.339844 204.046875 35.265625 C 206.476562 36.1875 208.472656 37.363281 210.035156 38.785156 C 212.988281 41.445312 214.464844 45.203125 214.464844 50.066406 C 214.464844 56.4375 212.0625 61.347656 207.261719 64.800781 C 203.152344 67.753906 197.972656 69.230469 191.726562 69.230469 C 186.6875 69.230469 181.710938 68.273438 176.792969 66.367188 C 175.167969 65.726562 173.753906 64.984375 172.542969 64.140625 L 173.003906 49.640625 L 173.183594 49.515625 C 176.773438 55.707031 182.664062 58.804688 190.855469 58.804688 C 196.660156 58.804688 200.507812 57.398438 202.390625 54.585938 C 203.03125 53.636719 203.351562 52.574219 203.351562 51.402344 C 203.351562 50.226562 203.164062 49.253906 202.78125 48.484375 C 202.402344 47.722656 201.78125 47.066406 200.917969 46.507812 C 199.246094 45.40625 196.425781 44.671875 192.453125 44.300781 C 188.496094 43.921875 185.253906 43.210938 182.730469 42.167969 C 180.21875 41.125 178.207031 39.835938 176.703125 38.304688 C 173.976562 35.519531 172.613281 31.632812 172.613281 26.652344 C 172.613281 21.503906 174.429688 17.335938 178.054688 14.144531 C 181.730469 10.90625 186.683594 9.285156 192.917969 9.285156 C 199.152344 9.285156 204.609375 10.722656 209.289062 13.59375 Z M 236.417969 57.773438 L 236.417969 62.414062 C 236.417969 64.90625 236.519531 66.816406 236.71875 68.144531 L 225.789062 68.144531 L 225.789062 6.03125 L 236.417969 6.03125 L 236.417969 44.070312 L 256.257812 22.753906 L 269.148438 22.753906 L 252.046875 40.78125 L 261.804688 54.105469 C 263.914062 57.476562 265.507812 59.9375 266.585938 61.492188 L 269.449219 65.546875 C 270.3125 66.675781 271.039062 67.539062 271.617188 68.144531 L 264.757812 68.144531 C 262.207031 68.144531 260.027344 68.363281 258.214844 68.804688 L 244.667969 48.980469 Z M 285.289062 16.847656 L 275.511719 9.800781 C 277.835938 6.183594 280.253906 3 282.765625 0.246094 L 292.097656 7.597656 C 290.851562 9.125 289.699219 10.632812 288.632812 12.117188 C 288.632812 12.117188 287.515625 13.691406 285.289062 16.847656 Z M 286.941406 22.753906 L 286.941406 63.289062 C 286.941406 65.777344 286.996094 67.398438 287.101562 68.144531 L 276.082031 68.144531 L 276.082031 22.753906 Z M 309.234375 3.414062 L 309.234375 63.289062 C 309.234375 65.777344 309.292969 67.398438 309.414062 68.144531 L 298.390625 68.144531 L 298.390625 3.414062 Z M 331.492188 3.414062 L 331.492188 63.289062 C 331.492188 65.777344 331.550781 67.398438 331.671875 68.144531 L 320.648438 68.144531 L 320.648438 3.414062 Z M 379.636719 13.59375 L 378.800781 26.347656 L 378.496094 26.4375 C 376.363281 23.222656 372.71875 21.140625 367.5625 20.191406 C 365.941406 19.871094 364.382812 19.710938 362.886719 19.710938 C 361.40625 19.710938 360.140625 19.84375 359.082031 20.105469 C 358.027344 20.363281 357.121094 20.738281 356.363281 21.226562 C 354.777344 22.269531 353.980469 23.632812 353.980469 25.316406 C 353.980469 27.511719 354.675781 29.160156 356.0625 30.265625 C 357.792969 31.59375 360.671875 32.53125 364.703125 33.074219 C 368.71875 33.609375 371.941406 34.339844 374.371094 35.265625 C 376.800781 36.1875 378.800781 37.363281 380.363281 38.785156 C 383.316406 41.445312 384.789062 45.203125 384.789062 50.066406 C 384.789062 56.4375 382.390625 61.347656 377.589844 64.800781 C 373.476562 67.753906 368.296875 69.230469 362.054688 69.230469 C 357.015625 69.230469 352.039062 68.273438 347.121094 66.367188 C 345.496094 65.726562 344.078125 64.984375 342.871094 64.140625 L 343.351562 49.640625 L 343.511719 49.515625 C 347.101562 55.707031 352.992188 58.804688 361.183594 58.804688 C 367 58.804688 370.847656 57.398438 372.71875 54.585938 C 373.359375 53.636719 373.679688 52.574219 373.679688 51.402344 C 373.679688 50.226562 373.488281 49.253906 373.109375 48.484375 C 372.742188 47.722656 372.121094 47.066406 371.242188 46.507812 C 369.574219 45.40625 366.753906 44.671875 362.78125 44.300781 C 358.824219 43.921875 355.585938 43.210938 353.074219 42.167969 C 350.550781 41.125 348.535156 39.835938 347.03125 38.304688 C 344.316406 35.519531 342.960938 31.632812 342.960938 26.652344 C 342.960938 21.503906 344.765625 17.335938 348.382812 14.144531 C 352.054688 10.90625 357.011719 9.285156 363.242188 9.285156 C 369.476562 9.285156 374.941406 10.722656 379.636719 13.59375 Z M 403.847656 16.847656 L 394.070312 9.800781 C 396.394531 6.183594 398.8125 3 401.324219 0.246094 L 410.65625 7.597656 C 409.414062 9.125 408.257812 10.632812 407.191406 12.117188 C 407.191406 12.117188 406.074219 13.691406 403.847656 16.847656 Z M 405.484375 22.753906 L 405.484375 63.289062 C 405.484375 65.777344 405.542969 67.398438 405.660156 68.144531 L 394.640625 68.144531 L 394.640625 22.753906 Z M 429.394531 56.0625 C 428.328125 57.488281 427.792969 58.609375 427.792969 59.425781 C 427.792969 60.257812 427.925781 60.898438 428.183594 61.347656 C 428.445312 61.796875 429.007812 62.226562 429.875 62.628906 C 431.78125 63.53125 434.921875 64.320312 439.296875 64.996094 C 443.667969 65.671875 447.089844 66.519531 449.554688 67.539062 C 452.03125 68.546875 454.039062 69.792969 455.582031 71.277344 C 458.4375 74.085938 459.863281 78.066406 459.863281 83.214844 C 459.863281 88.375 458.058594 92.335938 454.441406 95.101562 C 450.828125 97.863281 445.460938 99.246094 438.335938 99.246094 C 431.167969 99.246094 425.382812 97.679688 420.984375 94.550781 C 416.589844 91.429688 414.332031 87.277344 414.210938 82.09375 C 414.035156 76.070312 416.394531 71.710938 421.289062 69.015625 C 419.960938 67.914062 419.070312 66.613281 418.621094 65.121094 C 418.171875 63.636719 417.945312 61.933594 417.945312 60.011719 C 417.945312 56.800781 419.351562 54.078125 422.160156 51.847656 C 418.886719 48.75 417.253906 44.902344 417.253906 40.300781 C 417.253906 35.140625 419.101562 30.828125 422.800781 27.363281 C 426.710938 23.710938 431.777344 21.882812 438 21.882812 C 441.269531 21.882812 444.332031 22.488281 447.191406 23.699219 C 450.957031 22.109375 453.726562 20.714844 455.492188 19.515625 C 457.257812 18.320312 458.382812 17.441406 458.871094 16.882812 L 459.136719 16.9375 C 459.398438 17.625 459.699219 18.609375 460.042969 19.890625 L 460.824219 23.003906 C 461.523438 25.589844 461.945312 27.359375 462.085938 28.308594 C 460.808594 29.695312 458.5625 30.679688 455.351562 31.261719 C 456.59375 33.667969 457.214844 36.21875 457.214844 38.910156 C 457.214844 41.605469 456.753906 44.042969 455.828125 46.222656 C 454.90625 48.417969 453.589844 50.339844 451.882812 51.988281 C 448.089844 55.546875 443.261719 57.328125 437.394531 57.328125 C 434.527344 57.328125 431.859375 56.90625 429.394531 56.0625 Z M 428.273438 36.527344 C 427.871094 37.570312 427.671875 38.625 427.671875 39.695312 C 427.671875 40.761719 427.894531 41.789062 428.34375 42.773438 C 428.785156 43.757812 429.441406 44.640625 430.320312 45.421875 C 432.25 47.167969 434.78125 48.039062 437.910156 48.039062 C 440.28125 48.039062 442.335938 47.238281 444.078125 45.636719 C 445.890625 43.90625 446.796875 41.816406 446.796875 39.375 C 446.796875 36.917969 445.976562 34.9375 444.328125 33.429688 C 442.679688 31.925781 440.410156 31.171875 437.519531 31.171875 C 432.742188 31.171875 429.660156 32.957031 428.273438 36.527344 Z M 438.90625 90.03125 C 446.027344 90.03125 449.589844 87.542969 449.589844 82.574219 C 449.589844 80.191406 448.429688 78.273438 446.105469 76.828125 C 443.511719 75.179688 439.042969 73.890625 432.699219 72.964844 L 430.441406 72.574219 C 428.535156 73.582031 427.128906 74.886719 426.230469 76.488281 C 425.339844 78.078125 424.902344 79.589844 424.914062 81.027344 C 424.925781 82.460938 425.265625 83.703125 425.929688 84.746094 C 426.589844 85.789062 427.515625 86.695312 428.699219 87.46875 C 431.34375 89.175781 434.746094 90.03125 438.90625 90.03125 Z M 481.269531 37.949219 L 481.269531 63.289062 C 481.269531 65.777344 481.324219 67.398438 481.429688 68.144531 L 470.636719 68.144531 L 470.636719 6.03125 L 481.269531 6.03125 L 481.269531 26.136719 C 485.003906 23.300781 488.847656 21.882812 492.808594 21.882812 C 497.667969 21.882812 501.570312 23.492188 504.523438 26.707031 C 507.414062 29.921875 508.859375 34.179688 508.859375 39.480469 L 508.859375 56.757812 C 508.859375 61.65625 508.9375 64.597656 509.089844 65.582031 C 509.234375 66.566406 509.429688 67.203125 509.679688 67.488281 C 509.914062 67.78125 510.121094 68.042969 510.300781 68.269531 L 510.210938 68.449219 C 507.863281 68.246094 506.15625 68.144531 505.089844 68.144531 L 502.015625 68.144531 C 501.054688 68.144531 499.792969 68.1875 498.230469 68.269531 L 498.230469 43.128906 C 498.230469 39.128906 497.347656 36.175781 495.582031 34.265625 C 494.253906 32.820312 492.445312 32.097656 490.160156 32.097656 C 486.78125 32.097656 483.816406 34.046875 481.269531 37.949219 Z M 541.410156 58.589844 C 545.144531 58.589844 547.703125 57.617188 549.089844 55.671875 L 549.445312 55.671875 L 549.570312 65.761719 C 548.160156 67.171875 545.53125 68.109375 541.679688 68.570312 C 540.636719 68.726562 539.335938 68.804688 537.785156 68.804688 C 536.242188 68.804688 534.566406 68.511719 532.753906 67.929688 C 530.953125 67.351562 529.410156 66.40625 528.132812 65.101562 C 525.5 62.410156 524.183594 58.199219 524.183594 52.46875 L 524.183594 32.738281 L 517.625 32.738281 C 517.601562 31.894531 517.589844 31.039062 517.589844 30.175781 L 517.589844 23.484375 C 517.589844 23 517.601562 22.753906 517.625 22.753906 L 524.183594 22.753906 L 524.183594 10.371094 L 534.816406 10.371094 L 534.816406 22.753906 L 546.746094 22.753906 L 546.746094 32.738281 L 534.816406 32.738281 L 534.816406 50.457031 C 534.816406 55.015625 536.078125 57.605469 538.601562 58.234375 C 539.40625 58.472656 540.34375 58.589844 541.410156 58.589844 Z M 541.410156 58.589844 "/>
</g>
<g clip-path="url(#clip3)" clip-rule="nonzero">
<path style=" stroke:none;fill-rule:nonzero;fill:rgb(52.941176%,75.294118%,80.392157%);fill-opacity:1;" d="M 32.429688 21.882812 C 37.894531 21.882812 42.386719 17.8125 43.117188 12.523438 L 61.578125 12.523438 L 69.46875 23.949219 C 69.773438 24.375 70.199219 24.558594 70.683594 24.558594 L 115.4375 24.558594 C 116.226562 24.558594 116.894531 23.886719 116.894531 23.097656 C 116.894531 22.308594 116.226562 21.640625 115.4375 21.640625 L 71.414062 21.640625 L 63.519531 10.214844 C 63.214844 9.789062 62.789062 9.605469 62.304688 9.605469 L 43.054688 9.605469 C 42.328125 4.320312 37.835938 0.246094 32.371094 0.246094 C 26.417969 0.246094 21.5625 5.109375 21.5625 11.066406 C 21.5625 17.019531 26.480469 21.882812 32.429688 21.882812 Z M 32.429688 3.226562 C 36.742188 3.226562 40.261719 6.75 40.261719 11.066406 C 40.261719 15.378906 36.742188 18.90625 32.429688 18.90625 C 28.117188 18.90625 24.597656 15.378906 24.597656 11.066406 C 24.597656 6.75 28.058594 3.226562 32.429688 3.226562 Z M 32.429688 3.226562 "/>
</g>
<g clip-path="url(#clip4)" clip-rule="nonzero">
<path style=" stroke:none;fill-rule:nonzero;fill:rgb(52.941176%,75.294118%,80.392157%);fill-opacity:1;" d="M 115.4375 38.535156 L 68.863281 38.535156 C 68.132812 33.246094 63.640625 29.175781 58.175781 29.175781 C 52.226562 29.175781 47.367188 34.039062 47.367188 39.992188 C 47.367188 45.949219 52.226562 50.8125 58.175781 50.8125 C 63.640625 50.8125 68.132812 46.738281 68.863281 41.453125 L 115.4375 41.453125 C 116.226562 41.453125 116.894531 40.78125 116.894531 39.992188 C 116.894531 39.203125 116.226562 38.535156 115.4375 38.535156 Z M 58.175781 47.894531 C 53.863281 47.894531 50.34375 44.367188 50.34375 40.054688 C 50.34375 35.738281 53.863281 32.152344 58.175781 32.152344 C 62.488281 32.152344 66.007812 35.679688 66.007812 39.992188 C 66.007812 44.367188 62.488281 47.894531 58.175781 47.894531 Z M 58.175781 47.894531 "/>
</g>
<g clip-path="url(#clip5)" clip-rule="nonzero">
<path style=" stroke:none;fill-rule:nonzero;fill:rgb(52.941176%,75.294118%,80.392157%);fill-opacity:1;" d="M 115.4375 57.253906 L 74.8125 57.253906 C 74.328125 57.253906 73.84375 57.496094 73.539062 57.921875 L 67.832031 67.035156 L 42.8125 67.035156 L 36.621094 55.488281 C 36.378906 55.003906 35.890625 54.699219 35.34375 54.699219 L 22.230469 54.699219 C 21.5 49.414062 17.007812 45.339844 11.542969 45.339844 C 5.589844 45.339844 0.734375 50.203125 0.734375 56.160156 C 0.734375 62.113281 5.589844 66.976562 11.542969 66.976562 C 17.007812 66.976562 21.5 62.90625 22.230469 57.617188 L 34.433594 57.617188 L 40.628906 69.164062 C 40.871094 69.648438 41.355469 69.953125 41.902344 69.953125 L 68.621094 69.953125 C 69.105469 69.953125 69.589844 69.710938 69.894531 69.285156 L 75.601562 60.167969 L 115.375 60.167969 C 116.164062 60.167969 116.832031 59.5 116.832031 58.710938 C 116.894531 57.921875 116.226562 57.253906 115.4375 57.253906 Z M 11.542969 64.121094 C 7.230469 64.121094 3.710938 60.59375 3.710938 56.28125 C 3.710938 51.964844 7.230469 48.441406 11.542969 48.441406 C 15.851562 48.441406 19.375 51.964844 19.375 56.28125 C 19.4375 60.59375 15.914062 64.121094 11.542969 64.121094 Z M 11.542969 64.121094 "/>
</g>
<g clip-path="url(#clip6)" clip-rule="nonzero">
<path style=" stroke:none;fill-rule:nonzero;fill:rgb(52.941176%,75.294118%,80.392157%);fill-opacity:1;" d="M 115.4375 74.453125 L 91.996094 74.453125 C 91.449219 74.453125 90.964844 74.753906 90.722656 75.179688 L 83.800781 86.96875 L 48.460938 86.96875 C 47.730469 81.683594 43.238281 77.613281 37.773438 77.613281 C 31.824219 77.613281 26.964844 82.472656 26.964844 88.429688 C 26.964844 94.386719 31.824219 99.246094 37.773438 99.246094 C 43.238281 99.246094 47.730469 95.175781 48.460938 89.886719 L 84.648438 89.886719 C 85.195312 89.886719 85.683594 89.582031 85.925781 89.160156 L 92.847656 77.367188 L 115.4375 77.367188 C 116.226562 77.367188 116.894531 76.699219 116.894531 75.910156 C 116.894531 75.121094 116.226562 74.453125 115.4375 74.453125 Z M 37.773438 96.328125 C 33.460938 96.328125 29.941406 92.804688 29.941406 88.488281 C 29.941406 84.175781 33.460938 80.648438 37.773438 80.648438 C 42.085938 80.648438 45.605469 84.175781 45.605469 88.488281 C 45.667969 92.804688 42.144531 96.328125 37.773438 96.328125 Z M 37.773438 96.328125 "/>
</g>
</g>
</svg>
